<?xml version="1.0" encoding="UTF-8" standalone="no"?>
<!-- Generator: Adobe Illustrator 19.0.0, SVG Export Plug-In . SVG Version: 6.00 Build 0)  -->

<svg
   xmlns:osb="http://www.openswatchbook.org/uri/2009/osb"
   xmlns:dc="http://purl.org/dc/elements/1.1/"
   xmlns:cc="http://creativecommons.org/ns#"
   xmlns:rdf="http://www.w3.org/1999/02/22-rdf-syntax-ns#"
   xmlns:svg="http://www.w3.org/2000/svg"
   xmlns="http://www.w3.org/2000/svg"
   xmlns:sodipodi="http://sodipodi.sourceforge.net/DTD/sodipodi-0.dtd"
   xmlns:inkscape="http://www.inkscape.org/namespaces/inkscape"
   version="1.1"
   id="Layer_1"
   x="0px"
   y="0px"
   viewBox="0 0 490.524 490.524"
   style="enable-background:new 0 0 490.524 490.524;"
   xml:space="preserve"
   sodipodi:docname="8.svg"
   inkscape:version="0.92.1 r15371"><metadata
   id="metadata3729"><rdf:RDF><cc:Work
       rdf:about=""><dc:format>image/svg+xml</dc:format><dc:type
         rdf:resource="http://purl.org/dc/dcmitype/StillImage" /><dc:title></dc:title></cc:Work></rdf:RDF></metadata><defs
   id="defs3727"><linearGradient
     id="linearGradient4565"
     osb:paint="solid"><stop
       style="stop-color:#2eadc6;stop-opacity:1;"
       offset="0"
       id="stop4563" /></linearGradient></defs><sodipodi:namedview
   pagecolor="#ffffff"
   bordercolor="#666666"
   borderopacity="1"
   objecttolerance="10"
   gridtolerance="10"
   guidetolerance="10"
   inkscape:pageopacity="0"
   inkscape:pageshadow="2"
   inkscape:window-width="1366"
   inkscape:window-height="705"
   id="namedview3725"
   showgrid="false"
   inkscape:zoom="1.0682454"
   inkscape:cx="85.654475"
   inkscape:cy="246.82128"
   inkscape:window-x="-8"
   inkscape:window-y="-8"
   inkscape:window-maximized="1"
   inkscape:current-layer="Layer_1" />
<g
   id="g3692">
	<g
   id="g3690">
		<path
   style="fill:#2C2F33;"
   d="M358.023,255.815c-5-2.2-10.8,0-13.1,5.1c-8.5,19.1-20.6,36-36.1,50.2c-2,1.9-3.2,4.5-3.2,7.3    v122.6h-169.8v-36.8c0-2.9-1.3-5.6-3.4-7.5c-2.2-1.9-5.1-2.7-7.9-2.3l-45.5,6.8c-12.8-0.4-23.2-10.9-23.2-23.8v-59.3    c0-5.5-4.4-9.9-9.9-9.9h-15.4c-4.9,0-8.6-1.4-10-3.6c-1.4-2.3-0.9-6.2,1.4-10.5l32.7-62.4c0.7-1.4,1.1-3,1.1-4.6v-26.8    c0-58.3,34.2-111.8,87.1-136.4c18.1-8.6,37.5-13.4,57.6-14.3c5.5-0.2,9.7-4.9,9.5-10.3c-0.2-5.5-4.8-9.7-10.3-9.5    c-22.8,1-44.7,6.4-65.2,16.1c-59.8,27.9-98.4,88.5-98.4,154.4v24.2l-31.6,60.3c-5.6,10.7-5.9,21.6-0.8,30s14.9,13.2,26.9,13.2h5.5    v49.3c0,24.1,19.6,43.6,43.6,43.6c0.5,0,1,0,1.5-0.1l34.9-5.2v35.2c0,5.5,4.4,9.9,9.9,9.9h189.7c5.5,0,9.9-4.4,9.9-9.9v-128.2    c16-15.4,28.6-33.5,37.6-53.8C365.323,263.815,363.023,258.015,358.023,255.815z"
   id="path3680" />
		<path
   style="fill:#2C2F33;"
   d="M450.723,29.915h-182.4c-22,0-39.9,17.9-39.9,39.9v111.3c0,22,17.9,39.9,39.9,39.9h13.6v43.2    c0,4,2.4,7.5,6,9.1c1.3,0.5,2.6,0.8,3.9,0.8c2.5,0,5-0.9,6.9-2.8l52.6-50.4h99.3c22,0,39.9-17.9,39.9-39.9v-111.2    C490.623,47.815,472.723,29.915,450.723,29.915z M470.823,181.115c0,11.1-9,20.1-20.1,20.1h-103.3c-2.6,0-5,1-6.8,2.8l-38.7,37.1    v-30c0-5.5-4.4-9.9-9.9-9.9h-23.7c-11.1,0-20.1-9-20.1-20.1v-111.3c0-11.1,9-20.1,20.1-20.1h182.3c11.1,0,20.1,9,20.1,20.1v111.3    L470.823,181.115L470.823,181.115z"
   id="path3682" />
		<circle
   style="fill:#3C92CA;"
   cx="359.523"
   cy="125.315"
   r="12.8"
   id="circle3684" />
		<circle
   style="fill:#3C92CA;"
   cx="404.323"
   cy="125.315"
   r="12.8"
   id="circle3686" />
		<circle
   style="fill:#3C92CA;"
   cx="314.823"
   cy="125.315"
   r="12.8"
   id="circle3688" />
	</g>
</g>
<g
   id="g3694">
</g>
<g
   id="g3696">
</g>
<g
   id="g3698">
</g>
<g
   id="g3700">
</g>
<g
   id="g3702">
</g>
<g
   id="g3704">
</g>
<g
   id="g3706">
</g>
<g
   id="g3708">
</g>
<g
   id="g3710">
</g>
<g
   id="g3712">
</g>
<g
   id="g3714">
</g>
<g
   id="g3716">
</g>
<g
   id="g3718">
</g>
<g
   id="g3720">
</g>
<g
   id="g3722">
</g>
<ellipse
   style="fill:#2eadc6;fill-opacity:1;stroke:none;stroke-width:0.96720415"
   id="path6035"
   cx="359.936"
   cy="126.45889"
   rx="13.573661"
   ry="13.105603" /><ellipse
   style="fill:#2eadc6;fill-opacity:1;stroke:none;stroke-width:0.96720415"
   id="path6035-5"
   cx="315.3428"
   cy="125.52277"
   rx="13.573661"
   ry="13.105603" /><ellipse
   style="fill:#2eadc6;fill-opacity:1;stroke:none;stroke-width:0.96720415"
   id="path6035-2"
   cx="404.40146"
   cy="125.77832"
   rx="13.573661"
   ry="13.105603" /></svg>