<?xml version="1.0" encoding="UTF-8" standalone="no"?>
<svg
   xmlns:dc="http://purl.org/dc/elements/1.1/"
   xmlns:cc="http://creativecommons.org/ns#"
   xmlns:rdf="http://www.w3.org/1999/02/22-rdf-syntax-ns#"
   xmlns:svg="http://www.w3.org/2000/svg"
   xmlns="http://www.w3.org/2000/svg"
   xmlns:sodipodi="http://sodipodi.sourceforge.net/DTD/sodipodi-0.dtd"
   xmlns:inkscape="http://www.inkscape.org/namespaces/inkscape"
   version="1.1"
   x="0px"
   y="0px"
   viewBox="0 0 300 300"
   xml:space="preserve"
   id="svg4"
   sodipodi:docname="sent.svg"
   width="300"
   height="300"
   inkscape:version="0.92.1 r15371"><metadata
   id="metadata10"><rdf:RDF><cc:Work
       rdf:about=""><dc:format>image/svg+xml</dc:format><dc:type
         rdf:resource="http://purl.org/dc/dcmitype/StillImage" /><dc:title></dc:title></cc:Work></rdf:RDF></metadata><defs
   id="defs8" /><sodipodi:namedview
   pagecolor="#ffffff"
   bordercolor="#666666"
   borderopacity="1"
   objecttolerance="10"
   gridtolerance="10"
   guidetolerance="10"
   inkscape:pageopacity="0"
   inkscape:pageshadow="2"
   inkscape:window-width="1366"
   inkscape:window-height="705"
   id="namedview6"
   showgrid="false"
   inkscape:pagecheckerboard="true"
   inkscape:zoom="0.70553064"
   inkscape:cx="167.25"
   inkscape:cy="167.25"
   inkscape:window-x="-8"
   inkscape:window-y="-8"
   inkscape:window-maximized="1"
   inkscape:current-layer="svg4" />
	<path
   style="color:#bec3c7;fill:#bec3c7;fill-opacity:1;stroke-width:0.89685994"
   d="m 298.47258,13.459505 c -1.33543,-1.171299 -3.23587,-1.443047 -4.84663,-0.695963 L 2.5948837,147.98491 C 1.0280693,148.71316 0.0191019,150.27639 2.6783756e-4,152.00374 -0.01856622,153.7311 0.95721739,155.31585 2.5087851,156.07728 l 82.3613419,40.41969 c 1.510313,0.7417 3.311207,0.57399 4.660085,-0.43408 l 80.077938,-59.85106 -62.8645,64.66361 c -0.89686,0.92287 -1.35426,2.18654 -1.25561,3.46905 l 6.25919,81.51471 c 0.13901,1.80627 1.34977,3.35067 3.07085,3.91659 0.46009,0.15067 0.93273,0.22421 1.39999,0.22421 1.28162,0 2.52825,-0.54978 3.39552,-1.55426 l 43.71475,-50.65644 54.04029,25.8206 c 1.1731,0.56053 2.53094,0.58385 3.72287,0.0655 1.19193,-0.51929 2.09955,-1.52915 2.48879,-2.76861 L 299.79365,18.174298 c 0.53274,-1.695065 0.0135,-3.543493 -1.32107,-4.714793 z"
   id="path2"
   inkscape:connector-curvature="0" />
</svg>